<svg width="119" height="36" viewBox="0 0 119 36" fill="none" xmlns="http://www.w3.org/2000/svg">
<g clip-path="url(#clip0_1_5)">
<path d="M18.3008 21.5254L14.7676 27.2559C13.9707 27.1152 13.2324 26.9922 12.5527 26.8867C11.8848 26.7812 11.2227 26.6816 10.5664 26.5879C9.92188 26.5059 9.25977 26.418 8.58008 26.3242C7.90039 26.2305 7.16797 26.1191 6.38281 25.9902C6.07812 25.9316 5.77344 25.8906 5.46875 25.8672C5.17578 25.832 4.87695 25.8145 4.57227 25.8145C3.92773 25.8145 3.30664 25.9023 2.70898 26.0781C2.12305 26.2539 1.56055 26.5293 1.02148 26.9043L0.476562 26.3242C0.722657 26.1133 0.933594 25.8613 1.10938 25.5684C1.28516 25.2754 1.43164 24.9648 1.54883 24.6367C1.67773 24.2969 1.77148 23.957 1.83008 23.6172C1.88867 23.2773 1.91797 22.9551 1.91797 22.6504V12.2793C1.91797 10.6387 2.20508 9.10938 2.7793 7.69141C3.35352 6.27344 4.14453 5.04297 5.15234 4C6.17188 2.94531 7.36719 2.11914 8.73828 1.52148C10.1211 0.912109 11.6152 0.607422 13.2207 0.607422C13.7363 0.607422 14.2344 0.666016 14.7148 0.783203C15.1953 0.900391 15.6172 1.08789 15.9805 1.3457C16.3555 1.60352 16.6543 1.9375 16.877 2.34766C17.0996 2.75781 17.2109 3.26172 17.2109 3.85938C17.2109 4.38672 17.1113 4.89648 16.9121 5.38867C16.7129 5.88086 16.4375 6.34961 16.0859 6.79492C15.7461 7.24023 15.3477 7.65625 14.8906 8.04297C14.4453 8.41797 13.9766 8.75781 13.4844 9.0625C12.9922 9.36719 12.4883 9.625 11.9727 9.83594C11.457 10.0469 10.9707 10.2109 10.5137 10.3281L10.2324 9.66016C10.6309 9.42578 11.041 9.15625 11.4629 8.85156C11.8965 8.54688 12.2891 8.21289 12.6406 7.84961C12.9922 7.47461 13.2793 7.07031 13.502 6.63672C13.7246 6.19141 13.8359 5.71094 13.8359 5.19531C13.8359 4.78516 13.7598 4.41016 13.6074 4.07031C13.4551 3.71875 13.2441 3.41992 12.9746 3.17383C12.7168 2.92773 12.4121 2.73438 12.0605 2.59375C11.7207 2.45312 11.3516 2.38281 10.9531 2.38281C10.0742 2.38281 9.30078 2.57031 8.63281 2.94531C7.96484 3.32031 7.40234 3.8125 6.94531 4.42188C6.48828 5.03125 6.14258 5.72266 5.9082 6.49609C5.67383 7.26953 5.55664 8.05469 5.55664 8.85156V20.1719C5.55664 20.6172 5.49219 21.0508 5.36328 21.4727C5.23438 21.8828 5.05859 22.2812 4.83594 22.668C4.625 23.043 4.37305 23.4004 4.08008 23.7402C3.78711 24.0801 3.47656 24.3906 3.14844 24.6719C3.52344 24.4023 3.88672 24.1562 4.23828 23.9336C4.58984 23.6992 4.94727 23.5 5.31055 23.3359C5.68555 23.1719 6.07227 23.0488 6.4707 22.9668C6.86914 22.873 7.30859 22.8262 7.78906 22.8262C8.375 22.8262 8.89648 22.8555 9.35352 22.9141C9.81055 22.9727 10.2559 23.0371 10.6895 23.1074C11.1348 23.166 11.5859 23.2246 12.043 23.2832C12.5 23.3418 13.0215 23.3711 13.6074 23.3711C14.0176 23.3711 14.4102 23.3125 14.7852 23.1953C15.1719 23.0664 15.5352 22.8965 15.875 22.6855C16.2148 22.4746 16.5312 22.2344 16.8242 21.9648C17.1289 21.6836 17.4043 21.3848 17.6504 21.0684L18.3008 21.5254ZM26.0703 26.9043C25.2031 26.9043 24.3887 26.752 23.627 26.4473C22.877 26.1309 22.2207 25.6973 21.6582 25.1465C21.1074 24.5957 20.668 23.9512 20.3398 23.2129C20.0234 22.4629 19.8652 21.6484 19.8652 20.7695C19.8652 19.7734 20.0293 18.8418 20.3574 17.9746C20.6855 17.0957 21.1367 16.3047 21.7109 15.6016C22.2969 14.8984 22.9824 14.2891 23.7676 13.7734C24.5645 13.2578 25.4258 12.8535 26.3516 12.5605L26.8613 13.1758C26.334 13.5625 25.8418 14.0078 25.3848 14.5117C24.9277 15.0039 24.5293 15.543 24.1895 16.1289C23.8496 16.7031 23.5801 17.3125 23.3809 17.957C23.1816 18.5898 23.082 19.2402 23.082 19.9082C23.082 20.4707 23.1641 21.0625 23.3281 21.6836C23.4922 22.3047 23.7383 22.873 24.0664 23.3887C24.3945 23.9043 24.8047 24.332 25.2969 24.6719C25.8008 25 26.3809 25.1641 27.0371 25.1641C27.623 25.1641 28.127 25.0586 28.5488 24.8477C28.9824 24.6367 29.3398 24.3496 29.6211 23.9863C29.9023 23.623 30.1133 23.2012 30.2539 22.7207C30.3945 22.2285 30.4648 21.7129 30.4648 21.1738C30.4648 20.541 30.3418 19.8965 30.0957 19.2402C29.8496 18.5723 29.5098 17.957 29.0762 17.3945C28.6543 16.832 28.1562 16.3633 27.582 15.9883C27.0078 15.6133 26.3926 15.3965 25.7363 15.3379C26.1465 14.8691 26.5977 14.4355 27.0898 14.0371C27.582 13.6387 28.0801 13.2578 28.584 12.8945C29.2637 13.1172 29.8613 13.4453 30.377 13.8789C30.9043 14.3125 31.3438 14.8105 31.6953 15.373C32.0586 15.9355 32.334 16.5508 32.5215 17.2188C32.709 17.875 32.8027 18.543 32.8027 19.2227C32.8027 20.1484 32.6387 21.0684 32.3105 21.9824C31.9941 22.8965 31.5371 23.7227 30.9395 24.4609C30.3535 25.1875 29.6445 25.7793 28.8125 26.2363C27.9922 26.6816 27.0781 26.9043 26.0703 26.9043ZM46.9355 25.1992C46.9355 25.8906 46.8418 26.5938 46.6543 27.3086C46.4668 28.0352 46.1973 28.7441 45.8457 29.4355C45.5059 30.127 45.0957 30.7773 44.6152 31.3867C44.1348 32.0078 43.5957 32.5469 42.998 33.0039C42.4121 33.4609 41.7734 33.8242 41.082 34.0938C40.4023 34.3633 39.6934 34.498 38.9551 34.498C38.4863 34.498 38.0352 34.4219 37.6016 34.2695C37.1797 34.1172 36.7988 33.877 36.459 33.5488L38.7793 31.3516C39.0254 31.6797 39.3125 31.9434 39.6406 32.1426C39.9688 32.3418 40.3379 32.4414 40.748 32.4414C41.3457 32.4414 41.832 32.3242 42.207 32.0898C42.582 31.8672 42.8809 31.5625 43.1035 31.1758C43.3262 30.8008 43.4844 30.3672 43.5781 29.875C43.6719 29.3945 43.7305 28.8965 43.7539 28.3809C43.7773 27.8652 43.7773 27.3613 43.7539 26.8691C43.7422 26.377 43.7363 25.9316 43.7363 25.5332V23.5117C43.5254 23.9102 43.2852 24.3086 43.0156 24.707C42.7578 25.1055 42.459 25.4629 42.1191 25.7793C41.791 26.0957 41.4219 26.3535 41.0117 26.5527C40.6016 26.752 40.1445 26.8516 39.6406 26.8516C38.8789 26.8516 38.2051 26.7051 37.6191 26.4121C37.0332 26.1191 36.541 25.7266 36.1426 25.2344C35.7441 24.7305 35.4453 24.1445 35.2461 23.4766C35.0469 22.8086 34.9473 22.0996 34.9473 21.3496C34.9473 20.6699 35.0293 19.9844 35.1934 19.293C35.3574 18.5898 35.5859 17.916 35.8789 17.2715C36.1836 16.627 36.5527 16.0234 36.9863 15.4609C37.4316 14.8984 37.9238 14.4121 38.4629 14.002C39.0137 13.5801 39.6172 13.252 40.2734 13.0176C40.9297 12.7715 41.627 12.6484 42.3652 12.6484C42.8105 12.6484 43.2559 12.7012 43.7012 12.8066C44.1465 12.9121 44.5684 13.0762 44.9668 13.2988C45.377 13.5098 45.7461 13.7734 46.0742 14.0898C46.4141 14.4062 46.6895 14.7754 46.9004 15.1973L44.2812 16.3047C44.1406 16.082 43.9766 15.8594 43.7891 15.6367C43.6133 15.4023 43.4141 15.1914 43.1914 15.0039C42.9805 14.8164 42.7461 14.6641 42.4883 14.5469C42.2422 14.4297 41.9844 14.3711 41.7148 14.3711C41.3164 14.3711 40.9414 14.4648 40.5898 14.6523C40.25 14.8398 39.9336 15.0859 39.6406 15.3906C39.3594 15.6953 39.1074 16.0469 38.8848 16.4453C38.6621 16.832 38.4746 17.2363 38.3223 17.6582C38.1699 18.0801 38.0527 18.4961 37.9707 18.9062C37.9004 19.3164 37.8652 19.6855 37.8652 20.0137C37.8652 20.459 37.9062 20.9629 37.9883 21.5254C38.082 22.0762 38.2402 22.5977 38.4629 23.0898C38.6855 23.582 38.9785 23.998 39.3418 24.3379C39.7051 24.6777 40.1621 24.8477 40.7129 24.8477C41.1465 24.8477 41.5215 24.7539 41.8379 24.5664C42.1543 24.3672 42.4238 24.1152 42.6465 23.8105C42.8691 23.4941 43.0508 23.1367 43.1914 22.7383C43.3438 22.3281 43.4551 21.9121 43.5254 21.4902C43.6074 21.0684 43.6602 20.6523 43.6836 20.2422C43.7188 19.8203 43.7363 19.4453 43.7363 19.1172V17.9043L46.9355 16.7793V25.1992ZM56.0586 26.9043C55.1914 26.9043 54.377 26.752 53.6152 26.4473C52.8652 26.1309 52.209 25.6973 51.6465 25.1465C51.0957 24.5957 50.6562 23.9512 50.3281 23.2129C50.0117 22.4629 49.8535 21.6484 49.8535 20.7695C49.8535 19.7734 50.0176 18.8418 50.3457 17.9746C50.6738 17.0957 51.125 16.3047 51.6992 15.6016C52.2852 14.8984 52.9707 14.2891 53.7559 13.7734C54.5527 13.2578 55.4141 12.8535 56.3398 12.5605L56.8496 13.1758C56.3223 13.5625 55.8301 14.0078 55.373 14.5117C54.916 15.0039 54.5176 15.543 54.1777 16.1289C53.8379 16.7031 53.5684 17.3125 53.3691 17.957C53.1699 18.5898 53.0703 19.2402 53.0703 19.9082C53.0703 20.4707 53.1523 21.0625 53.3164 21.6836C53.4805 22.3047 53.7266 22.873 54.0547 23.3887C54.3828 23.9043 54.793 24.332 55.2852 24.6719C55.7891 25 56.3691 25.1641 57.0254 25.1641C57.6113 25.1641 58.1152 25.0586 58.5371 24.8477C58.9707 24.6367 59.3281 24.3496 59.6094 23.9863C59.8906 23.623 60.1016 23.2012 60.2422 22.7207C60.3828 22.2285 60.4531 21.7129 60.4531 21.1738C60.4531 20.541 60.3301 19.8965 60.084 19.2402C59.8379 18.5723 59.498 17.957 59.0645 17.3945C58.6426 16.832 58.1445 16.3633 57.5703 15.9883C56.9961 15.6133 56.3809 15.3965 55.7246 15.3379C56.1348 14.8691 56.5859 14.4355 57.0781 14.0371C57.5703 13.6387 58.0684 13.2578 58.5723 12.8945C59.252 13.1172 59.8496 13.4453 60.3652 13.8789C60.8926 14.3125 61.332 14.8105 61.6836 15.373C62.0469 15.9355 62.3223 16.5508 62.5098 17.2188C62.6973 17.875 62.791 18.543 62.791 19.2227C62.791 20.1484 62.627 21.0684 62.2988 21.9824C61.9824 22.8965 61.5254 23.7227 60.9277 24.4609C60.3418 25.1875 59.6328 25.7793 58.8008 26.2363C57.9805 26.6816 57.0664 26.9043 56.0586 26.9043ZM72.1426 24.4434C71.873 25.0176 71.5625 25.457 71.2109 25.7617C70.8594 26.0664 70.5137 26.2891 70.1738 26.4297C69.7871 26.5938 69.3887 26.6875 68.9785 26.7109C68.4512 26.7109 68.0176 26.6289 67.6777 26.4648C67.3496 26.3008 67.0859 26.084 66.8867 25.8145C66.6992 25.5449 66.5645 25.2402 66.4824 24.9004C66.4121 24.5605 66.377 24.2148 66.377 23.8633V14.6523H64.5137L65.2695 12.8945H66.377V6.67188L69.5938 5.54688V12.8945H72.9336L72.2129 14.6523H69.5938V23.9512C69.5938 24.2324 69.6582 24.4551 69.7871 24.6191C69.916 24.7832 70.0801 24.8711 70.2793 24.8828C70.4785 24.8828 70.7012 24.8066 70.9473 24.6543C71.1934 24.502 71.4336 24.2559 71.668 23.916L72.1426 24.4434ZM86.7852 25.0586C86.7852 25.9023 86.6797 26.7227 86.4688 27.5195C86.2578 28.3281 85.9648 29.084 85.5898 29.7871C85.2266 30.502 84.793 31.1523 84.2891 31.7383C83.7852 32.3359 83.2344 32.8457 82.6367 33.2676C82.0508 33.7012 81.4297 34.0352 80.7734 34.2695C80.1172 34.5156 79.4551 34.6387 78.7871 34.6387C78.2832 34.6387 77.8086 34.5508 77.3633 34.375C76.918 34.2109 76.4961 33.9883 76.0977 33.707L78.0664 31.2109C78.2422 31.3516 78.4355 31.498 78.6465 31.6504C78.8691 31.8027 79.0977 31.9375 79.332 32.0547C79.5664 32.1836 79.8066 32.2832 80.0527 32.3535C80.3105 32.4355 80.5625 32.4766 80.8086 32.4766C81.2539 32.4766 81.6289 32.3418 81.9336 32.0723C82.25 31.8027 82.5078 31.457 82.707 31.0352C82.9062 30.6133 83.0645 30.1328 83.1816 29.5938C83.2988 29.0664 83.3809 28.5391 83.4277 28.0117C83.4863 27.4844 83.5215 26.9805 83.5332 26.5C83.5449 26.0312 83.5508 25.6445 83.5508 25.3398V18.2559C83.457 18.666 83.334 19.1641 83.1816 19.75C83.0293 20.3242 82.8359 20.9336 82.6016 21.5781C82.3789 22.2109 82.1211 22.8438 81.8281 23.4766C81.5352 24.0977 81.2012 24.6602 80.8262 25.1641C80.4629 25.668 80.0527 26.0781 79.5957 26.3945C79.1504 26.6992 78.6641 26.8516 78.1367 26.8516C77.5977 26.8516 77.1875 26.7344 76.9062 26.5C76.6367 26.2539 76.4375 25.9492 76.3086 25.5859C76.1914 25.2109 76.127 24.8008 76.1152 24.3555C76.1035 23.9102 76.0977 23.4824 76.0977 23.0723V15.4785C76.0977 15.2676 76.0391 15.0625 75.9219 14.8633C75.8047 14.6523 75.623 14.5469 75.377 14.5469C75.084 14.5469 74.8145 14.6582 74.5684 14.8809C74.334 15.0918 74.1465 15.3027 74.0059 15.5137L73.5312 14.9863C73.6719 14.6934 73.8477 14.4121 74.0586 14.1426C74.2812 13.8613 74.5273 13.6152 74.7969 13.4043C75.0781 13.1934 75.377 13.0293 75.6934 12.9121C76.0215 12.7832 76.3613 12.7188 76.7129 12.7188C77.627 12.7188 78.2832 12.9766 78.6816 13.4922C79.0918 13.9961 79.2969 14.6816 79.2969 15.5488V22.791C79.2969 22.8613 79.2969 22.9551 79.2969 23.0723C79.3086 23.1777 79.332 23.2832 79.3672 23.3887C79.4023 23.4824 79.4551 23.5703 79.5254 23.6523C79.5957 23.7227 79.6895 23.7578 79.8066 23.7578C80.0293 23.7578 80.2578 23.6289 80.4922 23.3711C80.7266 23.1133 80.9492 22.8145 81.1602 22.4746C81.3711 22.1348 81.5527 21.7949 81.7051 21.4551C81.8574 21.1152 81.9688 20.8633 82.0391 20.6992C82.25 20.1953 82.4375 19.6445 82.6016 19.0469C82.7656 18.4492 82.9062 17.8398 83.0234 17.2188C83.1523 16.5859 83.2578 15.9648 83.3398 15.3555C83.4336 14.7344 83.5039 14.1426 83.5508 13.5801L86.7852 12.4551V25.0586ZM97.4551 26.8164C97.0449 26.8164 96.6523 26.7578 96.2773 26.6406C95.9023 26.5352 95.5508 26.3535 95.2227 26.0957L96.5938 24.127C96.8164 24.4316 97.0742 24.6719 97.3672 24.8477C97.6719 25.0117 98.0059 25.0938 98.3691 25.0938C98.7441 25.0938 99.0664 25 99.3359 24.8125C99.6055 24.6133 99.8281 24.3555 100.004 24.0391C100.191 23.7227 100.344 23.3711 100.461 22.9844C100.578 22.5859 100.666 22.1875 100.725 21.7891C100.783 21.3906 100.824 21.0098 100.848 20.6465C100.871 20.2715 100.883 19.9551 100.883 19.6973C100.883 19.2051 100.812 18.6719 100.672 18.0977C100.543 17.5234 100.338 16.9844 100.057 16.4805C99.7871 15.9766 99.4355 15.5605 99.002 15.2324C98.5684 14.8926 98.0527 14.7227 97.4551 14.7227C97.0449 14.7227 96.6934 14.8281 96.4004 15.0391C96.1191 15.2383 95.8789 15.5078 95.6797 15.8477C95.4922 16.1758 95.3398 16.5566 95.2227 16.9902C95.1172 17.4121 95.0352 17.8398 94.9766 18.2734C94.9297 18.6953 94.9004 19.1113 94.8887 19.5215C94.877 19.9199 94.8711 20.2656 94.8711 20.5586V34.0586L91.6719 35.1836V15.4434C91.6719 15.209 91.6133 14.998 91.4961 14.8105C91.3789 14.6113 91.1973 14.5117 90.9512 14.5117C90.6582 14.5117 90.3887 14.623 90.1426 14.8457C89.9082 15.0566 89.7207 15.2676 89.5801 15.4785L89.1055 14.9512C89.2461 14.6582 89.4219 14.377 89.6328 14.1074C89.8555 13.8262 90.1016 13.5801 90.3711 13.3691C90.6523 13.1582 90.9512 12.9941 91.2676 12.877C91.5957 12.748 91.9355 12.6836 92.2871 12.6836C92.791 12.6836 93.207 12.7598 93.5352 12.9121C93.8633 13.0527 94.127 13.2578 94.3262 13.5273C94.5254 13.7969 94.666 14.1191 94.748 14.4941C94.8301 14.8691 94.8711 15.2852 94.8711 15.7422C95.0586 15.3789 95.2754 15.0156 95.5215 14.6523C95.7793 14.2773 96.0664 13.9492 96.3828 13.668C96.6992 13.375 97.0449 13.1406 97.4199 12.9648C97.8066 12.7773 98.2285 12.6836 98.6855 12.6836C99.4941 12.6836 100.209 12.8652 100.83 13.2285C101.463 13.5801 101.99 14.0488 102.412 14.6348C102.846 15.209 103.174 15.8594 103.396 16.5859C103.619 17.3125 103.73 18.0508 103.73 18.8008C103.73 19.7266 103.596 20.6641 103.326 21.6133C103.068 22.5625 102.676 23.4238 102.148 24.1973C101.633 24.9707 100.982 25.6035 100.197 26.0957C99.4121 26.5762 98.498 26.8164 97.4551 26.8164ZM118.531 23.0723C118.121 23.5996 117.67 24.0918 117.178 24.5488C116.697 25.0059 116.17 25.4043 115.596 25.7441C115.033 26.084 114.436 26.3535 113.803 26.5527C113.17 26.752 112.514 26.8516 111.834 26.8516C110.967 26.8516 110.17 26.6992 109.443 26.3945C108.717 26.0781 108.09 25.6504 107.562 25.1113C107.035 24.5605 106.625 23.916 106.332 23.1777C106.039 22.4277 105.893 21.625 105.893 20.7695C105.893 20.0664 105.992 19.375 106.191 18.6953C106.391 18.0156 106.672 17.377 107.035 16.7793C107.398 16.1816 107.826 15.6309 108.318 15.127C108.822 14.6113 109.373 14.1719 109.971 13.8086C110.568 13.4453 111.201 13.1641 111.869 12.9648C112.537 12.7539 113.223 12.6484 113.926 12.6484C114.418 12.6484 114.881 12.707 115.314 12.8242C115.76 12.9414 116.152 13.1289 116.492 13.3867C116.832 13.6328 117.102 13.9551 117.301 14.3535C117.5 14.7402 117.6 15.2031 117.6 15.7422C117.6 16.1875 117.465 16.6562 117.195 17.1484C116.938 17.6406 116.592 18.1328 116.158 18.625C115.736 19.1172 115.256 19.6035 114.717 20.084C114.178 20.5527 113.627 20.9922 113.064 21.4023C112.514 21.8008 111.98 22.1523 111.465 22.457C110.949 22.7617 110.498 22.9961 110.111 23.1602C110.545 23.6992 111.049 24.1387 111.623 24.4785C112.197 24.8184 112.807 24.9883 113.451 24.9883C113.861 24.9883 114.277 24.9121 114.699 24.7598C115.121 24.5957 115.525 24.3906 115.912 24.1445C116.311 23.8984 116.686 23.6289 117.037 23.3359C117.4 23.043 117.723 22.7676 118.004 22.5098L118.531 23.0723ZM114.295 16.3926C114.295 16.123 114.248 15.8652 114.154 15.6191C114.072 15.373 113.949 15.1621 113.785 14.9863C113.621 14.7988 113.422 14.6523 113.188 14.5469C112.965 14.4297 112.707 14.3711 112.414 14.3711C111.887 14.3711 111.4 14.5586 110.955 14.9336C110.51 15.2969 110.123 15.748 109.795 16.2871C109.479 16.8262 109.227 17.4004 109.039 18.0098C108.863 18.6074 108.775 19.1348 108.775 19.5918C108.775 20.0371 108.846 20.4941 108.986 20.9629C109.127 21.4316 109.32 21.8828 109.566 22.3164C110.035 22.0586 110.545 21.7012 111.096 21.2441C111.646 20.7871 112.156 20.2891 112.625 19.75C113.105 19.1992 113.504 18.6309 113.82 18.0449C114.137 17.459 114.295 16.9082 114.295 16.3926Z" fill="black"/>
</g>
<defs>
<clipPath id="clip0_1_5">
<rect width="119" height="35" fill="white" transform="translate(0 0.5)"/>
</clipPath>
</defs>
</svg>
