<svg width="25" height="25" viewBox="0 0 25 25" fill="none" xmlns="http://www.w3.org/2000/svg">
<g clip-path="url(#clip0_1_25)">
<path fill-rule="evenodd" clip-rule="evenodd" d="M12.5 0.980469C15.6826 0.980469 18.7348 2.24475 20.9853 4.49519C23.2357 6.74562 24.5 9.79787 24.5 12.9805C24.5 15.3538 23.7962 17.6739 22.4776 19.6473C21.1591 21.6207 19.2849 23.1588 17.0922 24.067C14.8995 24.9753 12.4867 25.2129 10.1589 24.7499C7.83115 24.2869 5.69295 23.144 4.01472 21.4657C2.33649 19.7875 1.1936 17.6493 0.730582 15.3216C0.267559 12.9938 0.505199 10.581 1.41345 8.38827C2.3217 6.19555 3.85977 4.32141 5.83316 3.00283C7.80655 1.68426 10.1266 0.980469 12.5 0.980469Z" fill="black"/>
<path fill-rule="evenodd" clip-rule="evenodd" d="M11.6581 21.8877H14.9398V12.9801H17.2371C17.4558 12.9801 17.4884 11.758 17.5145 11.5229C17.5691 11.0336 17.659 10.4226 17.659 9.93271H14.9398V7.96366C14.9398 7.373 15.4331 7.11978 16.0181 7.11978H17.659V4.07243H17.4715C15.2742 4.07243 13.591 3.86552 12.4433 4.99828C12.0091 5.42677 11.6876 6.33538 11.6594 7.16795C11.6446 7.60392 11.6112 8.1046 11.6112 8.62002C11.6112 8.89273 11.7176 9.93271 11.4705 9.93271H9.36084V12.9801H11.6112L11.6581 21.8877Z" fill="#FEFEFE"/>
</g>
<defs>
<clipPath id="clip0_1_25">
<rect width="24" height="24" fill="white" transform="translate(0.5 0.980469)"/>
</clipPath>
</defs>
</svg>
