<svg width="25" height="25" viewBox="0 0 25 25" fill="none" xmlns="http://www.w3.org/2000/svg">
<g clip-path="url(#clip0_1_21)">
<path d="M12.5 2.82236C15.7041 2.82236 16.0836 2.83456 17.349 2.89229C18.519 2.94569 19.1544 3.14118 19.5773 3.30547C20.1373 3.52315 20.5371 3.78324 20.957 4.20313C21.3769 4.62303 21.637 5.02282 21.8546 5.5829C22.019 6.0058 22.2145 6.64119 22.2679 7.81113C22.3256 9.07653 22.3378 9.45603 22.3378 12.6602C22.3378 15.8643 22.3256 16.2438 22.2679 17.5092C22.2145 18.6792 22.019 19.3146 21.8546 19.7375C21.637 20.2975 21.3769 20.6973 20.957 21.1172C20.5371 21.5371 20.1373 21.7972 19.5773 22.0148C19.1544 22.1792 18.519 22.3747 17.349 22.4281C16.0838 22.4858 15.7043 22.498 12.5 22.498C9.29563 22.498 8.91613 22.4858 7.65097 22.4281C6.48098 22.3747 5.84559 22.1792 5.42274 22.0148C4.86261 21.7972 4.46282 21.5371 4.04293 21.1172C3.62303 20.6973 3.36295 20.2975 3.14531 19.7375C2.98097 19.3146 2.78548 18.6792 2.73209 17.5092C2.67435 16.2438 2.66216 15.8643 2.66216 12.6602C2.66216 9.45603 2.67435 9.07653 2.73209 7.81117C2.78548 6.64119 2.98097 6.0058 3.14531 5.5829C3.36295 5.02282 3.62303 4.62303 4.04293 4.20313C4.46282 3.78324 4.86261 3.52315 5.42274 3.30547C5.84559 3.14118 6.48098 2.94569 7.65092 2.89229C8.91632 2.83456 9.29582 2.82236 12.5 2.82236ZM12.5 0.660156C9.24095 0.660156 8.83234 0.67397 7.55241 0.73237C6.27511 0.790674 5.40283 0.9935 4.6395 1.29016C3.85039 1.59683 3.18118 2.00715 2.51406 2.67427C1.84695 3.34138 1.43663 4.01059 1.12996 4.7997C0.833296 5.56304 0.63047 6.43531 0.572166 7.71262C0.513766 8.9925 0.5 9.40115 0.5 12.6602C0.5 15.9192 0.513766 16.3279 0.572166 17.6077C0.63047 18.885 0.833296 19.7573 1.12996 20.5207C1.43663 21.3097 1.84695 21.979 2.51406 22.6461C3.18118 23.3132 3.85039 23.7235 4.6395 24.0302C5.40283 24.3269 6.27511 24.5297 7.55241 24.588C8.83234 24.6464 9.24095 24.6602 12.5 24.6602C15.759 24.6602 16.1677 24.6464 17.4475 24.588C18.7248 24.5297 19.5971 24.3269 20.3605 24.0302C21.1496 23.7235 21.8188 23.3132 22.4859 22.6461C23.153 21.979 23.5633 21.3098 23.87 20.5207C24.1667 19.7573 24.3695 18.885 24.4278 17.6077C24.4862 16.3279 24.5 15.9192 24.5 12.6602C24.5 9.40115 24.4862 8.9925 24.4278 7.71262C24.3695 6.43531 24.1667 5.56304 23.87 4.7997C23.5633 4.01059 23.153 3.34138 22.4859 2.67427C21.8188 2.00715 21.1496 1.59683 20.3605 1.29016C19.5971 0.9935 18.7248 0.790674 17.4475 0.73237C16.1677 0.67397 15.759 0.660156 12.5 0.660156ZM12.5 6.498C9.09671 6.498 6.33779 9.25692 6.33779 12.6602C6.33779 16.0634 9.09671 18.8224 12.5 18.8224C15.9032 18.8224 18.6622 16.0634 18.6622 12.6602C18.6622 9.25692 15.9032 6.498 12.5 6.498ZM12.5 16.6602C10.2909 16.6602 8.49995 14.8693 8.49995 12.6602C8.49995 10.4511 10.2909 8.66016 12.5 8.66016C14.7091 8.66016 16.5 10.4511 16.5 12.6602C16.5 14.8693 14.7091 16.6602 12.5 16.6602ZM20.3456 6.25454C20.3456 7.04984 19.7009 7.69457 18.9056 7.69457C18.1103 7.69457 17.4656 7.04984 17.4656 6.25454C17.4656 5.45924 18.1103 4.81456 18.9056 4.81456C19.7009 4.81456 20.3456 5.45924 20.3456 6.25454Z" fill="#0A0A08"/>
</g>
<defs>
<clipPath id="clip0_1_21">
<rect width="24" height="24" fill="white" transform="translate(0.5 0.660156)"/>
</clipPath>
</defs>
</svg>
